<svg width="69" height="68" viewBox="0 0 69 68" fill="none" xmlns="http://www.w3.org/2000/svg">
<path d="M12.638 57.8021L7.86523 4.25H60.3272L55.5481 57.7936L34.0644 63.75L12.638 57.8021Z" fill="#1572B6"/>
<path d="M34.0957 59.1985L51.457 54.3854L55.5412 8.62988H34.0957V59.1985Z" fill="#33A9DC"/>
<path d="M34.0957 28.0313H42.787L43.3862 21.3057H34.0957V14.7373H50.5645L50.4072 16.4989L48.7943 34.5997H34.0957V28.0313Z" fill="white"/>
<path d="M34.1358 45.0887L34.1061 45.0972L26.7918 43.1209L26.3243 37.8828H19.7305L20.6506 48.1954L34.104 51.9312L34.1358 51.9227V45.0887Z" fill="#EBEBEB"/>
<path d="M42.2287 34.3213L41.4382 43.1167L34.1133 45.0929V51.9269L47.5773 48.1954L47.6772 47.0862L48.8183 34.3213H42.2287Z" fill="white"/>
<path d="M34.1199 14.7373V21.3057H18.2546L18.1229 19.8288L17.8233 16.4989L17.666 14.7373H34.1199ZM34.0965 28.0313V34.5997H26.8736L26.7419 33.1228L26.4444 29.7929L26.2871 28.0313H34.0965Z" fill="#EBEBEB"/>
</svg>
