<svg width="34" height="24" viewBox="0 0 34 24" fill="none" xmlns="http://www.w3.org/2000/svg">
<g clip-path="url(#clip0_19_1447)">
<mask id="mask0_19_1447" style="mask-type:luminance" maskUnits="userSpaceOnUse" x="0" y="0" width="34" height="24">
<path d="M0.347656 0H33.739V24H0.347656V0Z" fill="white"/>
</mask>
<g mask="url(#mask0_19_1447)">
<path fill-rule="evenodd" clip-rule="evenodd" d="M0.347656 0V24H33.739V0H0.347656Z" fill="#2E42A5"/>
<mask id="mask1_19_1447" style="mask-type:luminance" maskUnits="userSpaceOnUse" x="0" y="0" width="34" height="24">
<path fill-rule="evenodd" clip-rule="evenodd" d="M0.347656 0V24H33.739V0H0.347656Z" fill="white"/>
</mask>
<g mask="url(#mask1_19_1447)">
<mask id="mask2_19_1447" style="mask-type:luminance" maskUnits="userSpaceOnUse" x="0" y="0" width="34" height="24">
<path d="M0.347656 0H33.739V24H0.347656V0Z" fill="white"/>
</mask>
<g mask="url(#mask2_19_1447)">
<path d="M-3.37109 22.2844L3.97708 25.2634L33.904 3.23741L37.7806 -1.18859L29.9232 -2.18359L17.7166 7.30741L7.89117 13.7034L-3.37109 22.2844Z" fill="white"/>
<path d="M-2.36523 24.3714L1.37981 26.0994L36.3895 -1.59961H31.1335L-2.36419 24.3704L-2.36523 24.3714Z" fill="#F50100"/>
<path d="M37.4563 22.2844L30.1082 25.2634L0.181209 3.23741L-3.69531 -1.18859L4.16208 -2.18359L16.3687 7.30741L26.1941 13.7034L37.4563 22.2844Z" fill="white"/>
<path d="M37.2064 23.7822L33.4624 25.5102L18.5553 13.6502L14.1351 12.3262L-4.06836 -1.17383H1.18868L19.3807 12.0062L24.213 13.5942L37.2064 23.7822Z" fill="#F50100"/>
<path fill-rule="evenodd" clip-rule="evenodd" d="M20.9847 -2H13.1002V8H-1.71094V16H13.1002V26H20.9847V16H35.8543V8H20.9847V-2Z" fill="#F50100"/>
<mask id="mask3_19_1447" style="mask-type:luminance" maskUnits="userSpaceOnUse" x="-2" y="-2" width="38" height="28">
<path fill-rule="evenodd" clip-rule="evenodd" d="M20.9847 -2H13.1002V8H-1.71094V16H13.1002V26H20.9847V16H35.8543V8H20.9847V-2Z" fill="white"/>
</mask>
<g mask="url(#mask3_19_1447)">
<path d="M13.0993 -2V-4H11.0123V-2H13.0993ZM20.9838 -2H23.0707V-4H20.9838V-2ZM13.0993 8V10H15.1862V8H13.0993ZM-1.71187 8V6H-3.79883V8H-1.71187ZM-1.71187 16H-3.79883V18H-1.71187V16ZM13.0993 16H15.1862V14H13.0993V16ZM13.0993 26H11.0123V28H13.0993V26ZM20.9838 26V28H23.0707V26H20.9838ZM20.9838 16V14H18.8968V16H20.9838ZM35.8533 16V18H37.9403V16H35.8533ZM35.8533 8H37.9403V6H35.8533V8ZM20.9838 8H18.8968V10H20.9838V8ZM13.0993 0H20.9838V-4H13.0993V0ZM15.1862 8V-2H11.0123V8H15.1862ZM-1.71187 10H13.0993V6H-1.71187V10ZM0.375085 16V8H-3.79883V16H0.375085ZM13.0993 14H-1.71187V18H13.0993V14ZM15.1862 26V16H11.0123V26H15.1862ZM20.9838 24H13.0993V28H20.9838V24ZM18.8968 16V26H23.0707V16H18.8968ZM35.8533 14H20.9838V18H35.8533V14ZM33.7664 8V16H37.9403V8H33.7664ZM20.9838 10H35.8533V6H20.9838V10ZM18.8968 -2V8H23.0707V-2H18.8968Z" fill="white"/>
</g>
</g>
</g>
</g>
</g>
<defs>
<clipPath id="clip0_19_1447">
<rect x="0.347656" width="33.3913" height="24" rx="8" fill="white"/>
</clipPath>
</defs>
</svg>
