<svg width="69" height="68" viewBox="0 0 69 68" fill="none" xmlns="http://www.w3.org/2000/svg">
<path d="M12.6382 57.8021L7.86328 4.25H60.3295L55.5483 57.7936L34.0645 63.75L12.6382 57.8021Z" fill="#E44F26"/>
<path d="M34.0957 59.1985L51.457 54.3854L55.5412 8.62988H34.0957V59.1985Z" fill="#F1662A"/>
<path d="M34.0957 28.4903H25.4045L24.8052 21.7647H34.0957V15.1963H17.627L17.7842 16.96L19.3971 35.0587H34.0957V28.4903ZM34.0957 45.5477L34.066 45.5562L26.7517 43.582L26.2842 38.3439H19.6903L20.6105 48.6544L34.066 52.3902L34.0957 52.3817V45.5477Z" fill="#EBEBEB"/>
<path d="M34.0723 28.4903V35.0587H42.16L41.3993 43.5778L34.0723 45.554V52.388L47.5384 48.6544L47.6361 47.5452L49.1789 30.254L49.3404 28.4903H34.0723ZM34.0723 15.1963V21.7647H49.9375L50.0693 20.2899L50.3689 16.96L50.5261 15.1963H34.0723Z" fill="white"/>
</svg>
