<svg width="2063" height="975" viewBox="0 0 2063 975" fill="none" xmlns="http://www.w3.org/2000/svg">
<g opacity="0.95">
<ellipse cx="108.466" cy="97.3316" rx="108.466" ry="97.3316" transform="matrix(0.999412 -0.0425257 0.105325 0.995018 1354.47 683.945)" fill="#FFDAD9"/>
<ellipse cx="108.466" cy="97.3315" rx="108.466" ry="97.3315" transform="matrix(0.999412 -0.0425257 0.105325 0.995018 1509.04 620.494)" fill="#FFDAD9"/>
<ellipse cx="108.466" cy="97.3315" rx="108.466" ry="97.3315" transform="matrix(0.999412 -0.0425257 0.105325 0.995018 1517.57 729.15)" fill="#FFDAD9"/>
<ellipse cx="108.466" cy="97.3316" rx="108.466" ry="97.3316" transform="matrix(0.999412 -0.0425257 0.105325 0.995018 1648.83 639.75)" fill="#FFDAD9"/>
<ellipse cx="108.466" cy="97.3315" rx="108.466" ry="97.3315" transform="matrix(0.999412 -0.0425257 0.105325 0.995018 1708.89 727.25)" fill="#FFDAD9"/>
<ellipse cx="108.466" cy="97.3316" rx="108.466" ry="97.3316" transform="matrix(0.999412 -0.0425257 0.105325 0.995018 1820.38 657.18)" fill="#FFDAD9"/>
</g>
<g opacity="0.95">
<ellipse cx="104.969" cy="94.1932" rx="104.969" ry="94.1932" transform="matrix(0.999412 -0.0425257 0.105325 0.995018 305.062 90.6934)" fill="#FFDAD9"/>
<ellipse cx="104.969" cy="94.1932" rx="104.969" ry="94.1932" transform="matrix(0.999412 -0.0425257 0.105325 0.995018 454.645 29.2871)" fill="#FFDAD9"/>
<ellipse cx="104.969" cy="94.1932" rx="104.969" ry="94.1932" transform="matrix(0.999412 -0.0425257 0.105325 0.995018 462.908 134.441)" fill="#FFDAD9"/>
<ellipse cx="104.969" cy="94.1932" rx="104.969" ry="94.1932" transform="matrix(0.999412 -0.0425257 0.105325 0.995018 589.926 47.9238)" fill="#FFDAD9"/>
<ellipse cx="104.969" cy="94.1932" rx="104.969" ry="94.1932" transform="matrix(0.999412 -0.0425257 0.105325 0.995018 648.051 132.604)" fill="#FFDAD9"/>
<ellipse cx="104.969" cy="94.1932" rx="104.969" ry="94.1932" transform="matrix(0.999412 -0.0425257 0.105325 0.995018 755.951 64.7891)" fill="#FFDAD9"/>
</g>
<g opacity="0.95">
<ellipse cx="58.7493" cy="52.7184" rx="58.7493" ry="52.7184" transform="matrix(0.999412 -0.0425257 0.105325 0.995018 1490.32 263.686)" fill="#FFDAD9"/>
<ellipse cx="58.7493" cy="52.7184" rx="58.7493" ry="52.7184" transform="matrix(0.999412 -0.0425257 0.105325 0.995018 1574.04 229.32)" fill="#FFDAD9"/>
<ellipse cx="58.7493" cy="52.7184" rx="58.7493" ry="52.7184" transform="matrix(0.999412 -0.0425257 0.105325 0.995018 1578.67 288.172)" fill="#FFDAD9"/>
<ellipse cx="58.7493" cy="52.7184" rx="58.7493" ry="52.7184" transform="matrix(0.999412 -0.0425257 0.105325 0.995018 1649.76 239.748)" fill="#FFDAD9"/>
<ellipse cx="58.7493" cy="52.7184" rx="58.7493" ry="52.7184" transform="matrix(0.999412 -0.0425257 0.105325 0.995018 1682.29 287.143)" fill="#FFDAD9"/>
<ellipse cx="58.7493" cy="52.7184" rx="58.7493" ry="52.7184" transform="matrix(0.999412 -0.0425257 0.105325 0.995018 1742.68 249.189)" fill="#FFDAD9"/>
</g>
<g opacity="0.6">
<ellipse cx="95.2561" cy="85.4776" rx="95.2561" ry="85.4776" transform="matrix(0.999412 -0.0425257 0.105325 0.995018 583.766 456.453)" fill="#FFDAD9"/>
<ellipse cx="95.2561" cy="85.4777" rx="95.2561" ry="85.4777" transform="matrix(0.999412 -0.0425257 0.105325 0.995018 719.508 400.73)" fill="#FFDAD9"/>
<ellipse cx="95.2561" cy="85.4776" rx="95.2561" ry="85.4776" transform="matrix(0.999412 -0.0425257 0.105325 0.995018 727.006 496.152)" fill="#FFDAD9"/>
<ellipse cx="95.2561" cy="85.4776" rx="95.2561" ry="85.4776" transform="matrix(0.999412 -0.0425257 0.105325 0.995018 842.271 417.641)" fill="#FFDAD9"/>
<ellipse cx="95.2561" cy="85.4776" rx="95.2561" ry="85.4776" transform="matrix(0.999412 -0.0425257 0.105325 0.995018 895.018 494.484)" fill="#FFDAD9"/>
<ellipse cx="95.2561" cy="85.4776" rx="95.2561" ry="85.4776" transform="matrix(0.999412 -0.0425257 0.105325 0.995018 992.934 432.947)" fill="#FFDAD9"/>
</g>
<g opacity="0.6">
<ellipse cx="66.745" cy="60.4522" rx="66.745" ry="60.4522" transform="matrix(0.999111 -0.0513383 0.124486 0.993023 250.166 812.984)" fill="#FFDAD9"/>
<ellipse cx="66.745" cy="60.4522" rx="66.745" ry="60.4522" transform="matrix(0.999111 -0.0513383 0.124486 0.993023 345.145 772.672)" fill="#FFDAD9"/>
<ellipse cx="66.745" cy="60.4522" rx="66.745" ry="60.4522" transform="matrix(0.999111 -0.0513383 0.124486 0.993023 351.451 839.805)" fill="#FFDAD9"/>
<ellipse cx="66.745" cy="60.4522" rx="66.745" ry="60.4522" transform="matrix(0.999111 -0.0513383 0.124486 0.993023 431.768 783.613)" fill="#FFDAD9"/>
<ellipse cx="66.7451" cy="60.4522" rx="66.7451" ry="60.4522" transform="matrix(0.999111 -0.0513383 0.124486 0.993023 469.736 837.307)" fill="#FFDAD9"/>
<ellipse cx="66.7451" cy="60.4522" rx="66.7451" ry="60.4522" transform="matrix(0.999111 -0.0513383 0.124486 0.993023 538.018 793.203)" fill="#FFDAD9"/>
</g>
<g opacity="0.95">
<ellipse cx="58.8855" cy="52.8406" rx="58.8855" ry="52.8406" transform="matrix(0.999412 -0.0425257 0.105325 0.995018 2.32812 523.549)" fill="#FFDAD9"/>
<ellipse cx="58.8855" cy="52.8406" rx="58.8855" ry="52.8406" transform="matrix(0.999412 -0.0425257 0.105325 0.995018 86.2402 489.102)" fill="#FFDAD9"/>
<ellipse cx="58.8855" cy="52.8406" rx="58.8855" ry="52.8406" transform="matrix(0.999412 -0.0425257 0.105325 0.995018 90.877 548.09)" fill="#FFDAD9"/>
<ellipse cx="58.8855" cy="52.8406" rx="58.8855" ry="52.8406" transform="matrix(0.999412 -0.0425257 0.105325 0.995018 162.131 499.557)" fill="#FFDAD9"/>
<ellipse cx="58.8855" cy="52.8406" rx="58.8855" ry="52.8406" transform="matrix(0.999412 -0.0425257 0.105325 0.995018 194.738 547.061)" fill="#FFDAD9"/>
<ellipse cx="58.8855" cy="52.8406" rx="58.8855" ry="52.8406" transform="matrix(0.999412 -0.0425257 0.105325 0.995018 255.268 509.018)" fill="#FFDAD9"/>
</g>
</svg>
