<svg width="69" height="68" viewBox="0 0 69 68" fill="none" xmlns="http://www.w3.org/2000/svg">
<path d="M34.0957 39.2568C37.0297 39.2568 39.4082 36.8783 39.4082 33.9443C39.4082 31.0103 37.0297 28.6318 34.0957 28.6318C31.1617 28.6318 28.7832 31.0103 28.7832 33.9443C28.7832 36.8783 31.1617 39.2568 34.0957 39.2568Z" fill="#00D8FF"/>
<path d="M34.0957 46.1257C27.7104 46.2801 21.341 45.4194 15.2257 43.5757C12.4008 42.6802 9.76601 41.2695 7.45458 39.4149C6.57255 38.7814 5.83803 37.9645 5.30141 37.0204C4.76478 36.0762 4.43876 35.0272 4.3457 33.9452C4.3457 30.4326 8.2047 26.9901 14.669 24.7376C20.9478 22.7417 27.508 21.7743 34.0957 21.8731C40.5955 21.7823 47.0679 22.7321 53.2675 24.6866C55.9881 25.5539 58.5335 26.8964 60.7857 28.6518C61.6526 29.2558 62.3762 30.0431 62.905 30.9579C63.4338 31.8726 63.7549 32.8925 63.8457 33.9452C63.8457 37.5959 59.532 41.2956 52.5832 43.5948C46.5863 45.3785 40.3513 46.232 34.0957 46.1257ZM34.0957 24.4146C27.7932 24.3303 21.5175 25.2499 15.5041 27.1388C9.55408 29.2149 6.8872 32.0539 6.8872 33.9388C6.8872 35.9108 9.75383 39.0112 16.0481 41.1638C21.8984 42.9188 27.9898 43.7357 34.0957 43.5842C40.0806 43.6912 46.0465 42.8814 51.7863 41.1829C58.3207 39.0176 61.2957 35.9129 61.2957 33.9452C61.1885 33.2699 60.9424 32.6242 60.573 32.0489C60.2036 31.4736 59.7189 30.9811 59.1495 30.6026C57.1344 29.0453 54.8606 27.8555 52.4323 27.0878C46.5015 25.2258 40.3113 24.3233 34.0957 24.4146Z" fill="#00D8FF"/>
<path d="M22.0249 60.441C21.0336 60.4638 20.0539 60.2233 19.1859 59.744C16.1429 57.9888 15.0889 52.927 16.366 46.2014C17.7741 39.765 20.214 33.5986 23.591 27.9413C26.7588 22.2656 30.8143 17.1333 35.6036 12.739C37.7141 10.8153 40.1487 9.28067 42.7946 8.20639C43.7516 7.75788 44.7956 7.52539 45.8525 7.52539C46.9094 7.52539 47.9534 7.75788 48.9104 8.20639C52.0745 10.0296 53.1221 15.6141 51.6453 22.7818C50.1936 28.869 47.8172 34.6976 44.5988 40.0644C41.5424 45.673 37.6147 50.7606 32.9622 55.137C30.7752 57.1362 28.237 58.7133 25.4759 59.7886C24.3705 60.1989 23.2037 60.4195 22.0249 60.441ZM25.7925 29.2035C22.5712 34.6208 20.2328 40.5164 18.865 46.6689C17.6899 52.8633 18.8183 56.5884 20.4588 57.5361C22.1588 58.52 26.2855 57.5871 31.2962 53.2096C35.7376 49.0169 39.4865 44.1469 42.4036 38.7809C45.4869 33.6501 47.7665 28.0776 49.1632 22.2569C50.553 15.51 49.3524 11.379 47.6481 10.3973C47.0094 10.1525 46.3268 10.043 45.6435 10.0755C44.9603 10.1081 44.2912 10.282 43.6786 10.5864C41.3234 11.5582 39.1582 12.938 37.2824 14.6621C32.7065 18.8713 28.8327 23.7846 25.8074 29.2163L25.7925 29.2035Z" fill="#00D8FF"/>
<path d="M46.1593 60.4692C43.2799 60.4692 39.6228 58.7267 35.8148 55.4521C30.9415 51.0178 26.8175 45.8245 23.6024 40.0734C20.2677 34.494 17.8472 28.4169 16.4327 22.0726C15.8192 19.2814 15.7055 16.4035 16.0969 13.5726C16.1874 12.5224 16.5072 11.5049 17.0337 10.5918C17.5602 9.67863 18.2806 8.89212 19.1442 8.2877C22.3041 6.45807 27.6654 8.3387 33.1373 13.1964C37.6861 17.4936 41.5489 22.4629 44.591 27.9312C47.9237 33.3804 50.3696 39.3245 51.8373 45.5411C52.4772 48.4347 52.5759 51.4218 52.1284 54.3513C52.022 55.4317 51.6831 56.4763 51.1351 57.4134C50.5872 58.3505 49.843 59.1581 48.9537 59.7807C48.0998 60.254 47.1353 60.4916 46.1593 60.4692ZM25.8018 38.7942C28.8861 44.2904 32.8255 49.2606 37.4723 53.5183C42.2514 57.6302 46.0424 58.5142 47.6723 57.5558C49.3723 56.5677 50.626 52.5344 49.334 46.0086C47.9185 40.0733 45.5726 34.3995 42.3832 29.1977C39.4801 23.9641 35.793 19.2057 31.4501 15.0877C26.2991 10.5147 22.1213 9.49257 20.4192 10.4786C19.8887 10.9097 19.4533 11.4461 19.1406 12.054C18.8279 12.6619 18.6446 13.328 18.6023 14.0103C18.2644 16.535 18.3745 19.0995 18.9274 21.5859C20.2881 27.6531 22.6095 33.4639 25.8039 38.7984L25.8018 38.7942Z" fill="#00D8FF"/>
</svg>
