<svg width="74" height="68" viewBox="0 0 74 68" fill="none" xmlns="http://www.w3.org/2000/svg">
<g clip-path="url(#clip0_37_11529)">
<mask id="mask0_37_11529" style="mask-type:alpha" maskUnits="userSpaceOnUse" x="0" y="0" width="74" height="68">
<path d="M0.333984 0H73.0082V67.1662H0.333984V0Z" fill="white"/>
</mask>
<g mask="url(#mask0_37_11529)">
<path fill-rule="evenodd" clip-rule="evenodd" d="M26.4297 8.05962C25.0619 8.06147 23.7186 8.4222 22.5338 9.10577C21.3491 9.78934 20.3645 10.7718 19.6783 11.955L9.43945 29.6885C8.75755 30.8735 8.39867 32.2167 8.39867 33.5839C8.39867 34.9511 8.75755 36.2943 9.43945 37.4793L19.6783 55.2095C20.3646 56.3926 21.3493 57.375 22.534 58.0586C23.7187 58.7421 25.062 59.1029 26.4297 59.105H46.9155C48.2833 59.1029 49.6266 58.7421 50.8113 58.0586C51.996 57.375 52.9807 56.3926 53.667 55.2095L63.9091 37.4777C64.591 36.2927 64.9498 34.9495 64.9498 33.5823C64.9498 32.2151 64.591 30.8719 63.9091 29.6869L53.667 11.955C52.9809 10.7717 51.9963 9.78914 50.8116 9.10555C49.6268 8.42197 48.2834 8.06131 46.9155 8.05962H26.4297ZM46.9155 67.1662H26.4297C23.6472 67.1621 20.9144 66.4281 18.5044 65.0374C16.0943 63.6467 14.0913 61.648 12.6954 59.241L2.45326 41.5091C1.06604 39.0982 0.335938 36.3654 0.335938 33.5839C0.335938 30.8024 1.06604 28.0696 2.45326 25.6587L12.6954 7.92362C14.0915 5.51688 16.0946 3.51853 18.5047 2.12813C20.9147 0.737724 23.6474 0.00392176 26.4297 0L46.9155 0C49.6981 0.00408642 52.4308 0.738133 54.8409 2.12883C57.251 3.51953 59.254 5.5182 60.6499 7.92524L70.8936 25.657C72.2812 28.0682 73.0114 30.8013 73.0114 33.5831C73.0114 36.3649 72.2812 39.098 70.8936 41.5091L60.6483 59.241C59.2524 61.648 57.2493 63.6467 54.8393 65.0374C52.4292 66.4281 49.6964 67.1621 46.9139 67.1662H46.9155Z" fill="#F0C002"/>
</g>
<path fill-rule="evenodd" clip-rule="evenodd" d="M44.4276 51.0483C43.7201 51.0484 43.0251 50.8622 42.4124 50.5084C41.7997 50.1546 41.2911 49.6457 40.9375 49.0329C40.584 48.4201 40.3982 47.725 40.3986 47.0175C40.3991 46.31 40.5858 45.6151 40.9402 45.0028L47.5345 33.5836L40.9385 22.1645C40.4039 21.2385 40.2591 20.138 40.5358 19.1052C40.8126 18.0724 41.4883 17.1919 42.4143 16.6573C43.3403 16.1227 44.4407 15.9778 45.4735 16.2546C46.5063 16.5313 47.3869 17.2071 47.9215 18.133L55.6816 31.5679C56.0354 32.1808 56.2217 32.876 56.2217 33.5836C56.2217 34.2913 56.0354 34.9865 55.6816 35.5993L47.9215 49.031C47.5674 49.6442 47.0581 50.1534 46.4448 50.5072C45.8314 50.8611 45.1357 51.0471 44.4276 51.0467" fill="#414237"/>
</g>
<defs>
<clipPath id="clip0_37_11529">
<rect width="72.8571" height="68" fill="white" transform="translate(0.333984)"/>
</clipPath>
</defs>
</svg>
