<svg width="31" height="20" viewBox="0 0 31 20" fill="none" xmlns="http://www.w3.org/2000/svg">
<path d="M5.49157 5.20117L5.685 5.72671L6.20775 5.92117L5.685 6.11564L5.49157 6.64117L5.29814 6.11564L4.77539 5.92117L5.29814 5.72671L5.49157 5.20117Z" fill="#DEE5F3"/>
<path d="M14.0853 9.04102L14.2788 9.56655L14.8015 9.76102L14.2788 9.95548L14.0853 10.481L13.8919 9.95548L13.3691 9.76102L13.8919 9.56655L14.0853 9.04102Z" fill="#DEE5F3"/>
<path d="M7.39977 17.6816L7.59321 18.2072L8.11595 18.4016L7.59321 18.5961L7.39977 19.1216L7.20634 18.5961L6.68359 18.4016L7.20634 18.2072L7.39977 17.6816Z" fill="#DEE5F3"/>
<path d="M9.78755 10.4805L9.85203 10.6556L10.0263 10.7205L9.85203 10.7853L9.78755 10.9605L9.72308 10.7853L9.54883 10.7205L9.72308 10.6556L9.78755 10.4805Z" fill="#DEE5F3"/>
<path d="M5.9692 13.8398L6.03367 14.015L6.20792 14.0798L6.03367 14.1447L5.9692 14.3198L5.90472 14.1447L5.73047 14.0798L5.90472 14.015L5.9692 13.8398Z" fill="#DEE5F3"/>
<path d="M11.3405 18.6406L11.4372 18.9034L11.6986 19.0006L11.4372 19.0979L11.3405 19.3606L11.2438 19.0979L10.9824 19.0006L11.2438 18.9034L11.3405 18.6406Z" fill="#DEE5F3"/>
<g filter="url(#filter0_f_54_55347)">
<path d="M5.13348 9.04102L5.2302 9.30378L5.49157 9.40102L5.2302 9.49825L5.13348 9.76102L5.03676 9.49825L4.77539 9.40102L5.03676 9.30378L5.13348 9.04102Z" fill="#DEE5F3"/>
</g>
<path d="M3.10396 16.2402L3.16844 16.4154L3.34269 16.4802L3.16844 16.5451L3.10396 16.7202L3.03948 16.5451L2.86523 16.4802L3.03948 16.4154L3.10396 16.2402Z" fill="#DEE5F3"/>
<path d="M15.0395 15.2812L15.104 15.4564L15.2782 15.5212L15.104 15.5861L15.0395 15.7612L14.975 15.5861L14.8008 15.5212L14.975 15.4564L15.0395 15.2812Z" fill="#DEE5F3"/>
<path d="M10.7426 2.80078L10.8071 2.97596L10.9814 3.04078L10.8071 3.1056L10.7426 3.28078L10.6782 3.1056L10.5039 3.04078L10.6782 2.97596L10.7426 2.80078Z" fill="#DEE5F3"/>
<path d="M1.1938 10.4805L1.25828 10.6556L1.43253 10.7205L1.25828 10.7853L1.1938 10.9605L1.12933 10.7853L0.955078 10.7205L1.12933 10.6556L1.1938 10.4805Z" fill="#DEE5F3"/>
<path d="M17.9037 0.400391L18.0971 0.925925L18.6199 1.12039L18.0971 1.31486L17.9037 1.84039L17.7102 1.31486L17.1875 1.12039L17.7102 0.925925L17.9037 0.400391Z" fill="#DEE5F3"/>
<path d="M28.8861 5.20117L29.0795 5.72671L29.6023 5.92117L29.0795 6.11564L28.8861 6.64117L28.6927 6.11564L28.1699 5.92117L28.6927 5.72671L28.8861 5.20117Z" fill="#DEE5F3"/>
<path d="M22.2006 16.2402L22.394 16.7658L22.9167 16.9602L22.394 17.1547L22.2006 17.6802L22.0071 17.1547L21.4844 16.9602L22.0071 16.7658L22.2006 16.2402Z" fill="#DEE5F3"/>
<path d="M24.5883 6.64062L24.6528 6.8158L24.8271 6.88062L24.6528 6.94545L24.5883 7.12062L24.5239 6.94545L24.3496 6.88062L24.5239 6.8158L24.5883 6.64062Z" fill="#DEE5F3"/>
<path d="M22.6782 11.9199L22.7427 12.0951L22.9169 12.1599L22.7427 12.2247L22.6782 12.3999L22.6137 12.2247L22.4395 12.1599L22.6137 12.0951L22.6782 11.9199Z" fill="#DEE5F3"/>
<path d="M25.1862 9.51953L25.2829 9.7823L25.5443 9.87953L25.2829 9.97676L25.1862 10.2395L25.0895 9.97676L24.8281 9.87953L25.0895 9.7823L25.1862 9.51953Z" fill="#DEE5F3"/>
<g filter="url(#filter1_f_54_55347)">
<path d="M19.9343 5.20117L20.031 5.46394L20.2924 5.56117L20.031 5.6584L19.9343 5.92117L19.8375 5.6584L19.5762 5.56117L19.8375 5.46394L19.9343 5.20117Z" fill="#DEE5F3"/>
</g>
<g filter="url(#filter2_f_54_55347)">
<path d="M17.9047 11.9199L17.9692 12.0951L18.1435 12.1599L17.9692 12.2247L17.9047 12.3999L17.8403 12.2247L17.666 12.1599L17.8403 12.0951L17.9047 11.9199Z" fill="#DEE5F3"/>
</g>
<path d="M29.8403 11.4395L29.9048 11.6146L30.079 11.6795L29.9048 11.7443L29.8403 11.9195L29.7758 11.7443L29.6016 11.6795L29.7758 11.6146L29.8403 11.4395Z" fill="#DEE5F3"/>
<path d="M27.4536 1.83984L27.518 2.01502L27.6923 2.07984L27.518 2.14467L27.4536 2.31984L27.3891 2.14467L27.2148 2.07984L27.3891 2.01502L27.4536 1.83984Z" fill="#DEE5F3"/>
<path d="M15.9946 6.64062L16.0591 6.8158L16.2333 6.88062L16.0591 6.94545L15.9946 7.12062L15.9301 6.94545L15.7559 6.88062L15.9301 6.8158L15.9946 6.64062Z" fill="#DEE5F3"/>
<defs>
<filter id="filter0_f_54_55347" x="4.51539" y="8.78102" width="1.2368" height="1.2407" filterUnits="userSpaceOnUse" color-interpolation-filters="sRGB">
<feFlood flood-opacity="0" result="BackgroundImageFix"/>
<feBlend mode="normal" in="SourceGraphic" in2="BackgroundImageFix" result="shape"/>
<feGaussianBlur stdDeviation="0.13" result="effect1_foregroundBlur_54_55347"/>
</filter>
<filter id="filter1_f_54_55347" x="19.3162" y="4.94117" width="1.2368" height="1.2407" filterUnits="userSpaceOnUse" color-interpolation-filters="sRGB">
<feFlood flood-opacity="0" result="BackgroundImageFix"/>
<feBlend mode="normal" in="SourceGraphic" in2="BackgroundImageFix" result="shape"/>
<feGaussianBlur stdDeviation="0.13" result="effect1_foregroundBlur_54_55347"/>
</filter>
<filter id="filter2_f_54_55347" x="17.406" y="11.6599" width="0.996563" height="1.00047" filterUnits="userSpaceOnUse" color-interpolation-filters="sRGB">
<feFlood flood-opacity="0" result="BackgroundImageFix"/>
<feBlend mode="normal" in="SourceGraphic" in2="BackgroundImageFix" result="shape"/>
<feGaussianBlur stdDeviation="0.13" result="effect1_foregroundBlur_54_55347"/>
</filter>
</defs>
</svg>
