<svg width="418" height="320" viewBox="0 0 418 320" fill="none" xmlns="http://www.w3.org/2000/svg">
<g opacity="0.95">
<ellipse cx="22.3068" cy="22.2287" rx="22.3068" ry="22.2287" transform="matrix(0.997805 -0.0662325 0.0678619 0.997695 -1.14062 78.8555)" fill="white"/>
<ellipse cx="22.3068" cy="22.2287" rx="22.3068" ry="22.2287" transform="matrix(0.997805 -0.0662325 0.0678619 0.997695 29.8203 64.0625)" fill="white"/>
<ellipse cx="22.3068" cy="22.2287" rx="22.3068" ry="22.2287" transform="matrix(0.997805 -0.0662325 0.0678619 0.997695 31.5293 89.3945)" fill="white"/>
<ellipse cx="22.3068" cy="22.2287" rx="22.3068" ry="22.2287" transform="matrix(0.997805 -0.0662325 0.0678619 0.997695 57.8184 68.5527)" fill="white"/>
<ellipse cx="22.3068" cy="22.2287" rx="22.3068" ry="22.2287" transform="matrix(0.997805 -0.0662325 0.0678619 0.997695 69.8496 88.9512)" fill="white"/>
<ellipse cx="22.3068" cy="22.2287" rx="22.3068" ry="22.2287" transform="matrix(0.997805 -0.0662325 0.0678619 0.997695 92.1816 72.6152)" fill="white"/>
</g>
<g opacity="0.95">
<ellipse cx="22.3068" cy="22.2287" rx="22.3068" ry="22.2287" transform="matrix(0.997805 -0.0662325 0.0678619 0.997695 183.859 21.8574)" fill="white"/>
<ellipse cx="22.3068" cy="22.2287" rx="22.3068" ry="22.2287" transform="matrix(0.997805 -0.0662325 0.0678619 0.997695 214.82 7.06445)" fill="white"/>
<ellipse cx="22.3068" cy="22.2287" rx="22.3068" ry="22.2287" transform="matrix(0.997805 -0.0662325 0.0678619 0.997695 216.529 32.3965)" fill="white"/>
<ellipse cx="22.3068" cy="22.2287" rx="22.3068" ry="22.2287" transform="matrix(0.997805 -0.0662325 0.0678619 0.997695 242.818 11.5547)" fill="white"/>
<ellipse cx="22.3068" cy="22.2287" rx="22.3068" ry="22.2287" transform="matrix(0.997805 -0.0662325 0.0678619 0.997695 254.85 31.9531)" fill="white"/>
<ellipse cx="22.3068" cy="22.2287" rx="22.3068" ry="22.2287" transform="matrix(0.997805 -0.0662325 0.0678619 0.997695 277.182 15.6172)" fill="white"/>
</g>
<g opacity="0.6">
<ellipse cx="11.5966" cy="11.556" rx="11.5966" ry="11.556" transform="matrix(0.997805 -0.0662325 0.0678619 0.997695 345.1 176.209)" fill="white"/>
<ellipse cx="11.5966" cy="11.556" rx="11.5966" ry="11.556" transform="matrix(0.997805 -0.0662326 0.0678619 0.997695 361.193 168.52)" fill="white"/>
<ellipse cx="11.5966" cy="11.556" rx="11.5966" ry="11.556" transform="matrix(0.997805 -0.0662325 0.0678619 0.997695 362.082 181.688)" fill="white"/>
<ellipse cx="11.5966" cy="11.556" rx="11.5966" ry="11.556" transform="matrix(0.997805 -0.0662325 0.0678619 0.997695 375.748 170.852)" fill="white"/>
<ellipse cx="11.5966" cy="11.556" rx="11.5966" ry="11.556" transform="matrix(0.997805 -0.0662325 0.0678619 0.997695 382.004 181.457)" fill="white"/>
<ellipse cx="11.5966" cy="11.556" rx="11.5966" ry="11.556" transform="matrix(0.997805 -0.0662325 0.0678619 0.997695 393.613 172.965)" fill="white"/>
</g>
<g opacity="0.6">
<ellipse cx="11.5966" cy="11.556" rx="11.5966" ry="11.556" transform="matrix(0.997805 -0.0662325 0.0678619 0.997695 128.447 166.361)" fill="white"/>
<ellipse cx="11.5966" cy="11.556" rx="11.5966" ry="11.556" transform="matrix(0.997805 -0.0662326 0.0678619 0.997695 144.541 158.672)" fill="white"/>
<ellipse cx="11.5966" cy="11.556" rx="11.5966" ry="11.556" transform="matrix(0.997805 -0.0662325 0.0678619 0.997695 145.43 171.84)" fill="white"/>
<ellipse cx="11.5966" cy="11.556" rx="11.5966" ry="11.556" transform="matrix(0.997805 -0.0662325 0.0678619 0.997695 159.096 161.004)" fill="white"/>
<ellipse cx="11.5966" cy="11.556" rx="11.5966" ry="11.556" transform="matrix(0.997805 -0.0662325 0.0678619 0.997695 165.352 171.609)" fill="white"/>
<ellipse cx="11.5966" cy="11.556" rx="11.5966" ry="11.556" transform="matrix(0.997805 -0.0662325 0.0678619 0.997695 176.961 163.117)" fill="white"/>
</g>
</svg>
