<svg width="453" height="320" viewBox="0 0 453 320" fill="none" xmlns="http://www.w3.org/2000/svg">
<path d="M296.43 139.924L290.125 156.737L273.312 163.042L290.125 169.347L296.43 186.16L302.735 169.347L319.548 163.042L302.735 156.737L296.43 139.924Z" fill="white"/>
<path d="M23.8815 159.393L17.5767 176.206L0.763672 182.51L17.5767 188.815L23.8815 205.628L30.1864 188.815L46.9994 182.51L30.1864 176.206L23.8815 159.393Z" fill="white"/>
<path d="M149.814 249.43L142.016 270.225L121.221 278.023L142.016 285.821L149.814 306.616L157.612 285.821L178.407 278.023L157.612 270.225L149.814 249.43Z" fill="white"/>
<path d="M374.909 25.5508L366.448 48.1156L343.883 56.5774L366.448 65.0392L374.909 87.604L383.371 65.0392L405.936 56.5774L383.371 48.1156L374.909 25.5508Z" fill="white"/>
<path d="M174.756 46.2363L168.12 63.9342L150.422 70.5709L168.12 77.2076L174.756 94.9055L181.393 77.2076L199.091 70.5709L181.393 63.9342L174.756 46.2363Z" fill="white"/>
<path d="M369.433 186.16L365.783 195.894L356.049 199.544L365.783 203.194L369.433 212.928L373.083 203.194L382.817 199.544L373.083 195.894L369.433 186.16Z" fill="white"/>
<path d="M415.062 255.514L406.268 278.963L382.818 287.757L406.268 296.551L415.062 320L423.855 296.551L447.305 287.757L423.855 278.963L415.062 255.514Z" fill="white"/>
<path d="M396.809 116.807L393.656 125.213L385.25 128.366L393.656 131.518L396.809 139.925L399.961 131.518L408.368 128.366L399.961 125.213L396.809 116.807Z" fill="white"/>
<path d="M126.087 154.525L122.769 163.374L113.92 166.693L122.769 170.011L126.087 178.86L129.406 170.011L138.255 166.693L129.406 163.374L126.087 154.525Z" fill="white"/>
</svg>
