<svg width="66" height="29" viewBox="0 0 66 29" fill="none" xmlns="http://www.w3.org/2000/svg">
<g opacity="0.95">
<ellipse cx="5.06182" cy="5.04315" rx="5.06182" ry="5.04315" transform="matrix(0.997808 -0.0661892 0.067906 0.997692 29.0703 11.4824)" fill="white"/>
<ellipse cx="5.06182" cy="5.04315" rx="5.06182" ry="5.04315" transform="matrix(0.997808 -0.0661892 0.067906 0.997692 36.0957 8.12695)" fill="white"/>
<ellipse cx="5.06182" cy="5.04315" rx="5.06182" ry="5.04315" transform="matrix(0.997808 -0.0661892 0.067906 0.997692 36.4844 13.873)" fill="white"/>
<ellipse cx="5.06182" cy="5.04315" rx="5.06182" ry="5.04315" transform="matrix(0.997808 -0.0661892 0.067906 0.997692 42.4492 9.14453)" fill="white"/>
<ellipse cx="5.06182" cy="5.04315" rx="5.06182" ry="5.04315" transform="matrix(0.997808 -0.0661892 0.067906 0.997692 45.1797 13.7734)" fill="white"/>
<ellipse cx="5.06182" cy="5.04315" rx="5.06182" ry="5.04315" transform="matrix(0.997808 -0.0661892 0.067906 0.997692 50.2461 10.0664)" fill="white"/>
</g>
<g opacity="0.95">
<ellipse cx="5.06182" cy="5.04315" rx="5.06182" ry="5.04315" transform="matrix(0.997808 -0.0661892 0.067906 0.997692 3.80469 16.0078)" fill="white"/>
<ellipse cx="5.06182" cy="5.04315" rx="5.06182" ry="5.04315" transform="matrix(0.997808 -0.0661892 0.067906 0.997692 10.8301 12.6523)" fill="white"/>
<ellipse cx="5.06182" cy="5.04315" rx="5.06182" ry="5.04315" transform="matrix(0.997808 -0.0661892 0.067906 0.997692 11.2188 18.3984)" fill="white"/>
<ellipse cx="5.06182" cy="5.04315" rx="5.06182" ry="5.04315" transform="matrix(0.997808 -0.0661892 0.067906 0.997692 17.1836 13.6699)" fill="white"/>
<ellipse cx="5.06182" cy="5.04315" rx="5.06182" ry="5.04315" transform="matrix(0.997808 -0.0661892 0.067906 0.997692 19.9141 18.2988)" fill="white"/>
<ellipse cx="5.06182" cy="5.04315" rx="5.06182" ry="5.04315" transform="matrix(0.997808 -0.0661892 0.067906 0.997692 24.9805 14.5918)" fill="white"/>
</g>
<g opacity="0.6">
<ellipse cx="5.06182" cy="5.04315" rx="5.06182" ry="5.04315" transform="matrix(0.997808 -0.0661892 0.067906 0.997692 33.4648 4.9668)" fill="white"/>
<ellipse cx="5.06182" cy="5.04315" rx="5.06182" ry="5.04315" transform="matrix(0.997808 -0.0661892 0.067906 0.997692 40.4902 1.61133)" fill="white"/>
<ellipse cx="5.06182" cy="5.04315" rx="5.06182" ry="5.04315" transform="matrix(0.997808 -0.0661892 0.067906 0.997692 40.8789 7.35742)" fill="white"/>
<ellipse cx="5.06182" cy="5.04315" rx="5.06182" ry="5.04315" transform="matrix(0.997808 -0.0661892 0.067906 0.997692 46.8438 2.62891)" fill="white"/>
<ellipse cx="5.06182" cy="5.04315" rx="5.06182" ry="5.04315" transform="matrix(0.997808 -0.0661892 0.067906 0.997692 49.5742 7.25781)" fill="white"/>
<ellipse cx="5.06182" cy="5.04315" rx="5.06182" ry="5.04315" transform="matrix(0.997808 -0.0661892 0.067906 0.997692 54.6406 3.55078)" fill="white"/>
</g>
<g opacity="0.6">
<ellipse cx="5.06155" cy="5.04343" rx="5.06155" ry="5.04343" transform="matrix(0.996855 -0.0791464 0.0810547 0.996719 11.998 13.0605)" fill="white"/>
<ellipse cx="5.06155" cy="5.04343" rx="5.06155" ry="5.04343" transform="matrix(0.996855 -0.0791464 0.0810547 0.996719 18.9785 9.61328)" fill="white"/>
<ellipse cx="5.06155" cy="5.04343" rx="5.06155" ry="5.04343" transform="matrix(0.996855 -0.0791464 0.0810547 0.996719 19.4434 15.3535)" fill="white"/>
<ellipse cx="5.06155" cy="5.04343" rx="5.06155" ry="5.04343" transform="matrix(0.996855 -0.0791464 0.0810547 0.996719 25.3457 10.5488)" fill="white"/>
<ellipse cx="5.06155" cy="5.04343" rx="5.06155" ry="5.04343" transform="matrix(0.996855 -0.0791464 0.0810547 0.996719 28.1367 15.1406)" fill="white"/>
<ellipse cx="5.06155" cy="5.04343" rx="5.06155" ry="5.04343" transform="matrix(0.996855 -0.0791464 0.0810547 0.996719 33.1543 11.3691)" fill="white"/>
</g>
</svg>
