<svg width="53" height="31" viewBox="0 0 53 31" fill="none" xmlns="http://www.w3.org/2000/svg">
<path d="M22.04 30L18.92 30.36C18.36 30.36 17.8667 30.0267 17.44 29.36L4.28 8.2L4.88 30H0.32V1.2L3.44 0.839999C4.02667 0.839999 4.53333 1.17333 4.96 1.84L18.2 22.96L17.48 1.2H22.04V30ZM36.4316 28.92L26.5516 1.48L31.2316 0.919998L39.6716 25.4L48.1116 0.919998L52.7916 1.48L42.5916 29.72C42.2716 29.8267 41.5782 29.9467 40.5116 30.08C39.4716 30.2133 38.6049 30.28 37.9116 30.28C37.2182 30.28 36.7249 29.8267 36.4316 28.92Z" fill="#653939"/>
</svg>
