<svg width="46" height="68" viewBox="0 0 46 68" fill="none" xmlns="http://www.w3.org/2000/svg">
<g clip-path="url(#clip0_37_11500)">
<path d="M11.3333 67.9997C17.5893 67.9997 22.6667 62.9223 22.6667 56.6663V45.333H11.3333C5.07733 45.333 0 50.4103 0 56.6663C0 62.9223 5.07733 67.9997 11.3333 67.9997Z" fill="#0ACF83"/>
<path d="M0 34.0003C0 27.7443 5.07733 22.667 11.3333 22.667H22.6667V45.3337H11.3333C5.07733 45.3337 0 40.2563 0 34.0003Z" fill="#A259FF"/>
<path d="M0 11.3333C0 5.07733 5.07733 0 11.3333 0H22.6667V22.6667H11.3333C5.07733 22.6667 0 17.5893 0 11.3333Z" fill="#F24E1E"/>
<path d="M22.666 0H33.9993C40.2554 0 45.3327 5.07733 45.3327 11.3333C45.3327 17.5893 40.2554 22.6667 33.9993 22.6667H22.666V0Z" fill="#FF7262"/>
<path d="M45.3327 34.0003C45.3327 40.2563 40.2554 45.3337 33.9993 45.3337C27.7433 45.3337 22.666 40.2563 22.666 34.0003C22.666 27.7443 27.7433 22.667 33.9993 22.667C40.2554 22.667 45.3327 27.7443 45.3327 34.0003Z" fill="#1ABCFE"/>
</g>
<defs>
<clipPath id="clip0_37_11500">
<rect width="45.3333" height="68" fill="white"/>
</clipPath>
</defs>
</svg>
