<svg width="69" height="68" viewBox="0 0 69 68" fill="none" xmlns="http://www.w3.org/2000/svg">
<path d="M34.0951 5.66699C30.3743 5.66699 26.6899 6.39986 23.2524 7.82374C19.8148 9.24762 16.6914 11.3346 14.0604 13.9656C8.74683 19.2792 5.76172 26.4859 5.76172 34.0003C5.76172 46.5237 13.8934 57.1487 25.1417 60.917C26.5584 61.1437 27.0117 60.2653 27.0117 59.5003V54.712C19.1634 56.412 17.4917 50.9153 17.4917 50.9153C16.1884 47.6287 14.3467 46.7503 14.3467 46.7503C11.7684 44.9937 14.5451 45.0503 14.5451 45.0503C17.3784 45.2487 18.8801 47.9687 18.8801 47.9687C21.3451 52.2753 25.5101 51.0003 27.1251 50.3203C27.3801 48.4787 28.1167 47.232 28.9101 46.5237C22.6201 45.8153 16.0184 43.3787 16.0184 32.5837C16.0184 29.4387 17.0951 26.917 18.9367 24.9053C18.6534 24.197 17.6617 21.2503 19.2201 17.4253C19.2201 17.4253 21.6001 16.6603 27.0117 20.3153C29.2501 19.692 31.6867 19.3803 34.0951 19.3803C36.5034 19.3803 38.9401 19.692 41.1784 20.3153C46.5901 16.6603 48.9701 17.4253 48.9701 17.4253C50.5284 21.2503 49.5367 24.197 49.2534 24.9053C51.0951 26.917 52.1717 29.4387 52.1717 32.5837C52.1717 43.407 45.5417 45.787 39.2234 46.4953C40.2434 47.3737 41.1784 49.102 41.1784 51.737V59.5003C41.1784 60.2653 41.6317 61.172 43.0767 60.917C54.3251 57.1203 62.4284 46.5237 62.4284 34.0003C62.4284 30.2795 61.6955 26.5952 60.2716 23.1576C58.8478 19.7201 56.7607 16.5966 54.1297 13.9656C51.4988 11.3346 48.3753 9.24762 44.9378 7.82374C41.5002 6.39986 37.8158 5.66699 34.0951 5.66699Z" fill="black"/>
</svg>
