<svg width="69" height="68" viewBox="0 0 69 68" fill="none" xmlns="http://www.w3.org/2000/svg">
<g clip-path="url(#clip0_37_11591)">
<path d="M66.8094 30.9683L37.1189 1.28059C36.2957 0.46048 35.1812 0 34.0192 0C32.8573 0 31.7427 0.46048 30.9195 1.28059L24.7684 7.44309L32.5884 15.2631C33.511 14.9505 34.5028 14.903 35.451 15.1259C36.3993 15.3488 37.266 15.8332 37.9527 16.5241C38.6395 17.2149 39.1187 18.0846 39.3359 19.0342C39.5531 19.9837 39.4996 20.9752 39.1815 21.8959L46.7125 29.4326C47.8271 29.045 49.0402 29.0475 50.1532 29.4396C51.2662 29.8317 52.213 30.5901 52.8385 31.5907C53.4641 32.5912 53.7313 33.7746 53.5963 34.9468C53.4614 36.1191 52.9324 37.2108 52.0959 38.0431C51.6125 38.5273 51.0383 38.9114 50.4063 39.1735C49.7743 39.4356 49.0968 39.5705 48.4125 39.5705C47.7283 39.5705 47.0508 39.4356 46.4188 39.1735C45.7868 38.9114 45.2126 38.5273 44.7292 38.0431C44.0048 37.3166 43.51 36.3931 43.3065 35.3875C43.1029 34.382 43.1996 33.3388 43.5845 32.3878L36.5324 25.3724V43.8599C37.031 44.1036 37.5014 44.4351 37.915 44.8459C38.8854 45.8263 39.4296 47.1499 39.4296 48.5293C39.4296 49.9086 38.8854 51.2322 37.915 52.2126C37.4298 52.6982 36.8536 53.0835 36.2195 53.3464C35.5853 53.6092 34.9055 53.7445 34.219 53.7445C33.5324 53.7445 32.8527 53.6092 32.2185 53.3464C31.5843 53.0835 31.0081 52.6982 30.5229 52.2126C30.0385 51.7298 29.6542 51.1562 29.392 50.5247C29.1297 49.8931 28.9948 49.2159 28.9948 48.5321C28.9948 47.8482 29.1297 47.1711 29.392 46.5395C29.6542 45.9079 30.0385 45.3343 30.5229 44.8516C31.0385 44.3416 31.6194 43.9563 32.237 43.7013V25.0324C31.601 24.7724 31.0228 24.3888 30.536 23.9039C30.0492 23.4189 29.6634 22.8422 29.401 22.2072C29.1385 21.5722 29.0046 20.8914 29.007 20.2042C29.0095 19.5171 29.1481 18.8373 29.415 18.2041L21.731 10.4833L1.3707 30.8294C-0.329297 32.5436 -0.329297 35.3174 1.3707 37.0316L31.064 66.7164C31.4706 67.1234 31.9533 67.4462 32.4847 67.6664C33.0161 67.8867 33.5857 68 34.1609 68C34.7361 68 35.3057 67.8867 35.837 67.6664C36.3684 67.4462 36.8512 67.1234 37.2577 66.7164L66.8094 37.1648C67.2171 36.7583 67.5405 36.2755 67.7613 35.7438C67.982 35.2122 68.0956 34.6422 68.0956 34.0665C68.0956 33.4908 67.982 32.9209 67.7613 32.3892C67.5405 31.8575 67.2171 31.3747 66.8094 30.9683Z" fill="black"/>
</g>
<defs>
<clipPath id="clip0_37_11591">
<rect width="68" height="68" fill="white" transform="translate(0.0957031)"/>
</clipPath>
</defs>
</svg>
