<svg width="69" height="68" viewBox="0 0 69 68" fill="none" xmlns="http://www.w3.org/2000/svg">
<path d="M58.0008 4.25H11.1917C7.66767 4.25 4.80859 7.10547 4.80859 10.625V57.375C4.80859 60.8945 7.66767 63.75 11.1917 63.75H58.0008C61.5247 63.75 64.3838 60.8945 64.3838 57.375V10.625C64.3838 7.10547 61.5247 4.25 58.0008 4.25ZM37.2292 50.6547C37.2292 56.4453 33.8249 59.0883 28.8647 59.0883C24.3833 59.0883 21.7902 56.7773 20.4604 53.975L25.0216 51.2258C25.8993 52.7797 26.6972 54.0945 28.6254 54.0945C30.4605 54.0945 31.6307 53.3773 31.6307 50.575V31.5695H37.2292V50.6547ZM50.4741 59.0883C45.2745 59.0883 41.9101 56.618 40.2745 53.3773L44.8357 50.7477C46.0325 52.7 47.6017 54.1477 50.3544 54.1477C52.6682 54.1477 54.1576 52.9922 54.1576 51.3852C54.1576 49.4727 52.6416 48.7953 50.0751 47.6664L48.6788 47.0687C44.6362 45.3555 41.9633 43.1906 41.9633 38.6352C41.9633 34.4383 45.1682 31.2508 50.1549 31.2508C53.7188 31.2508 56.272 32.4859 58.1071 35.7266L53.7454 38.5156C52.7879 36.8023 51.7507 36.125 50.1416 36.125C48.506 36.125 47.4687 37.1609 47.4687 38.5156C47.4687 40.1891 48.506 40.8664 50.9129 41.9156L52.3092 42.5133C57.0699 44.5453 59.7428 46.6305 59.7428 51.3055C59.7428 56.3258 55.78 59.0883 50.4741 59.0883Z" fill="#F5ED27"/>
<path d="M38.5082 58.9937H59.9537V8.42506H38.5082V58.9937Z" fill="white" fill-opacity="0.4"/>
</svg>
