<svg width="69" height="68" viewBox="0 0 69 68" fill="none" xmlns="http://www.w3.org/2000/svg">
<g clip-path="url(#clip0_37_11579)">
<path d="M46.6311 19.1592L46.4186 20.267C46.0899 22.3665 46.2089 22.9672 47.1099 23.7463L47.9797 24.466L47.0787 28.4837C46.5404 30.8807 45.8802 32.8895 45.4609 33.5497C45.1011 34.1192 44.6817 34.9578 44.5911 35.4083C44.4409 35.9467 43.9309 36.4878 43.1517 36.9667C42.4632 37.3577 41.1117 38.406 40.1541 39.2475C39.3891 39.936 38.8621 40.3582 38.5759 40.5395L37.6409 41.279C37.4005 41.6356 37.2196 42.0289 37.1054 42.4435C37.0402 42.7467 37.0771 42.9478 37.1734 43.0952C37.2669 43.2368 37.4284 43.336 37.6494 43.3983C37.911 43.4597 38.1803 43.4816 38.4484 43.4635C39.0549 43.4221 39.6553 43.3157 40.2391 43.1462C40.4374 43.0923 40.5932 43.0413 40.7292 42.996C40.9389 42.7382 41.4234 42.2508 42.2819 41.4037C44.5599 39.1568 45.4297 37.9272 44.5316 38.2587C44.2001 38.3777 44.3502 38.0773 44.9197 37.4767C46.1211 36.3065 46.8096 34.5385 48.2489 28.9937C49.3879 24.6162 49.3879 24.5538 50.2266 24.5538C50.6204 24.5538 51.7339 24.6218 51.7339 24.6218V19.1592H49.1782H46.6311ZM57.5082 28.1267C57.3269 28.1267 57.0266 28.3987 56.8481 28.699C56.5194 29.2373 56.9076 29.566 61.8546 32.6543C64.7927 34.5158 67.1614 36.1025 67.1019 36.2243C67.0424 36.3122 64.6426 37.8733 61.7667 39.6725C56.5477 42.9082 56.5194 42.9393 56.9982 43.5995C57.5989 44.3787 56.9982 44.6478 63.7727 40.4205L68.6914 37.2727V34.904L63.2032 31.5153C60.2367 29.6567 57.6584 28.1578 57.5082 28.1267ZM11.9341 28.4582C11.7839 28.4582 9.20557 29.9882 6.23907 31.8157L0.691406 35.2043V37.573L6.20791 41.0212C9.26791 42.9082 11.8462 44.4693 11.9652 44.4693C12.0842 44.4693 12.3251 44.1973 12.5659 43.8687C12.9257 43.2992 12.6226 43.0583 7.55657 39.851C2.73141 36.8222 2.22141 36.4028 2.70307 36.0742C3.00341 35.8645 5.28141 34.4535 7.74074 32.9263C13.3479 29.4782 13.0476 29.7162 12.5971 28.9965C12.4186 28.699 12.1154 28.4298 11.9369 28.4582H11.9341ZM36.5387 28.5233C35.7114 28.5177 33.9321 29.7785 28.6054 34.1277C28.3759 34.6745 28.3561 35.0513 28.4609 35.295C28.5289 35.4622 28.6536 35.5783 28.8264 35.6633C28.9964 35.7483 29.2174 35.7993 29.4611 35.8192C29.9456 35.8617 30.5179 35.7852 30.9797 35.6945L31.2914 35.6237C31.3981 35.4806 31.5382 35.3658 31.6994 35.2893C32.0281 35.108 33.4079 33.85 34.7877 32.5013C37.2159 30.042 37.7854 28.9313 36.7966 28.5715C36.7155 28.5392 36.626 28.5229 36.5387 28.5233ZM42.7607 30.2318C42.0326 30.2517 40.7207 31.096 38.4739 32.8895C37.3462 33.8047 36.6322 34.2977 36.2497 34.3997L34.7651 35.5727C34.2069 36.5927 34.1247 37.2245 34.2721 37.573C34.3089 37.659 34.3625 37.7368 34.4296 37.802C34.4967 37.8671 34.5761 37.9184 34.6631 37.9527C34.8795 38.0382 35.1103 38.0814 35.3431 38.0802C35.8992 38.0743 36.452 37.9932 36.9864 37.8393C37.2649 37.7646 37.54 37.6776 37.8109 37.5787L37.8931 37.5447L38.0432 37.4653C38.3266 37.0998 38.9782 36.4113 39.7942 35.618C42.3726 33.1303 43.6901 31.3623 43.4209 30.7022C43.2991 30.382 43.0894 30.2205 42.7607 30.2318ZM35.8927 33.2918C35.6831 33.3145 35.2127 33.6772 34.3656 34.4195C33.1416 35.5018 31.8071 36.1252 31.3452 35.8475C31.2379 35.8718 31.1302 35.8944 31.0222 35.9155C30.5519 36.009 29.9654 36.0855 29.4412 36.043C29.1943 36.0281 28.9522 35.9675 28.7272 35.8645C28.5151 35.7675 28.3457 35.5962 28.2512 35.3828C28.1464 35.1278 28.1464 34.8105 28.2654 34.4053L26.4237 35.9183L22.2559 39.3665V44.9567L35.9126 34.1985C35.9099 34.0807 35.9252 33.9632 35.9579 33.85C36.0627 33.4703 36.0571 33.2777 35.8927 33.2947V33.2918ZM41.7691 35.1023C41.5622 35.1023 41.2166 35.3942 40.6641 35.9807C39.9132 36.7825 38.7317 37.5588 38.1056 37.7175L38.0092 37.7685C37.9064 37.811 37.8025 37.8506 37.6976 37.8875C37.5276 37.9442 37.3066 38.0122 37.0516 38.0802C36.5416 38.219 35.9069 38.3465 35.3402 38.3323C35.0731 38.332 34.8085 38.2801 34.5611 38.1793C34.3278 38.0832 34.141 37.9004 34.0397 37.6693C33.8754 37.2755 33.9406 36.723 34.3004 35.9382L22.2531 45.427V48.8412H27.5457L38.7714 40.0238C39.0632 39.7008 39.5024 39.2588 40.0946 38.7063C41.6812 37.2358 42.0411 36.7287 42.0411 35.9778C42.0411 35.3942 41.9759 35.0995 41.7691 35.0995V35.1023ZM44.4409 40.6273L43.4804 41.585C42.9421 42.095 41.9816 42.724 41.3242 42.9932L41.1939 43.0498L41.1854 43.064L41.1571 43.0923C41.1316 43.1122 41.1202 43.115 41.1004 43.1235C40.838 43.2228 40.5714 43.3107 40.3014 43.387C39.7011 43.5618 39.0836 43.671 38.4597 43.7128C38.1648 43.7318 37.8687 43.706 37.5814 43.6363C37.3321 43.5815 37.112 43.4361 36.9637 43.2283C36.8277 43.0187 36.7881 42.7382 36.8646 42.3925C36.9254 42.1464 37.0158 41.9086 37.1337 41.6842L28.0756 48.8412H40.1229L41.5622 47.1922C43.5399 44.8858 44.4409 43.2368 44.4409 41.8258V40.6273Z" fill="black"/>
</g>
<defs>
<clipPath id="clip0_37_11579">
<rect width="68" height="68" fill="white" transform="translate(0.691406)"/>
</clipPath>
</defs>
</svg>
